  0
SECTION
  2
HEADER
  9
$ACADVER
  1
AC1009
  9
$INSBASE
 10
0
 20
0
 30
0
  9
$EXTMIN
 10
0
 20
0
  9
$EXTMAX
 10
84100
 20
59400
  9
$LIMMIN
 10
0
 20
0
  9
$LIMMAX
 10
84100
 20
59400
  9
$LTSCALE
 40
100
  0
ENDSEC
  0
SECTION
  2
TABLES
  0
TABLE
  2
VPORT
  5
    1
100
AcDbSymbolTable
 70
    1
  0
VPORT
  5
    2
100
AcDbSymbolTableRecord
100
AcDbViewportTableRecord
  2
*Active
 70
    0
 10
0
 20
0
 11
1
 21
1
 12
42050
 22
29700
 13
0
 23
0
 14
10
 24
10
 15
10
 25
10
 16
0
 26
0
 36
100
 17
0
 27
0
 37
0
 40
59400
 41
1.5376
 42
50
 43
0
 44
0
 50
0
 51
0
 71
    0
 72
  100
 73
    1
 74
    3
 75
    0
 76
    0
 77
    0
 78
    0
  0
ENDTAB
  0
TABLE
  2
LTYPE
 70
     9
  0
LTYPE
  2
CONTINUOUS
 70
    64
  3
実線
 72
    65
 73
     0
 40
0.0
  0
LTYPE
  2
DASHED1
 70
    64
  3
--  --  --  --  --  --  --  --  
 72
    65
 73
     2
 40
2.5
 49
1.25
 49
-1.25
  0
LTYPE
  2
DASHED2
 70
    64
  3
----    ----    ----    ----    
 72
    65
 73
     2
 40
5.0
 49
2.5
 49
-2.5
  0
LTYPE
  2
DASHED3
 70
    64
  3
------  ------  ------  ------  
 72
    65
 73
     2
 40
5.0
 49
3.75
 49
-1.25
  0
LTYPE
  2
CENTER1
 70
    64
  3
----- - ----- - ----- - ----- - 
 72
    65
 73
     4
 40
10.0
 49
6.25
 49
-1.25
 49
1.25
 49
-1.25
  0
LTYPE
  2
CENTER2
 70
    64
  3
----------  --  ----------  --  
 72
    65
 73
     4
 40
20.0
 49
12.5
 49
-2.5
 49
2.5
 49
-2.5
  0
LTYPE
  2
PHANTOM1
 70
    64
  3
--- - - --- - - --- - - --- - - 
 72
    65
 73
     6
 40
10.0
 49
3.25
 49
-1.25
 49
1.25
 49
-1.25
 49
1.25
 49
-1.25
  0
LTYPE
  2
PHANTOM2
 70
    64
  3
--------  -  -  --------  -  -  
 72
    65
 73
     6
 40
20.0
 49
10.0
 49
-2.5
 49
1.25
 49
-2.5
 49
1.25
 49
-2.5
  0
LTYPE
  2
DOT
 70
    64
  3
-   -   -   -   -   -   -   -   
 72
    65
 73
     2
 40
2.5
 49
0.625
 49
-1.875
  0
LTYPE
  2
DUMMY
 70
    64
  3
ダミー
 72
    65
 73
     0
 40
0.0
  0
LTYPE
  2
RAND1
 70
    64
  3
ランダム線1
 72
    65
 73
     4
 40
10.0
 49
1.0
 49
-2.0
 49
3.0
 49
-4.0
  0
LTYPE
  2
RAND2
 70
    64
  3
ランダム線2
 72
    65
 73
     4
 40
14.0
 49
2.0
 49
-3.0
 49
4.0
 49
-5.0
  0
LTYPE
  2
RAND3
 70
    64
  3
ランダム線3
 72
    65
 73
     4
 40
18.0
 49
3.0
 49
-4.0
 49
5.0
 49
-6.0
  0
LTYPE
  2
RAND4
 70
    64
  3
ランダム線4
 72
    65
 73
     4
 40
22.0
 49
4.0
 49
-5.0
 49
6.0
 49
-7.0
  0
LTYPE
  2
RAND5
 70
    64
  3
ランダム線5
 72
    65
 73
     4
 40
26.0
 49
5.0
 49
-6.0
 49
7.0
 49
-8.0
  0
LTYPE
  2
LONG1
 70
    64
  3
----------  --  ----------  --  
 72
    65
 73
     4
 40
40.0
 49
32.5
 49
-2.5
 49
2.5
 49
-2.5
  0
LTYPE
  2
LONG2
 70
    64
  3
--------  -  -  --------  -  -  
 72
    65
 73
     6
 40
40.0
 49
30.0
 49
-2.5
 49
1.25
 49
-2.5
 49
1.25
 49
-2.5
  0
LTYPE
  2
LONG3
 70
    64
  3
+++++++++++++++..+++++++++++++++
 72
    65
 73
     2
 40
40.0
 49
37.5
 49
-2.5
  0
LTYPE
  2
LONG4
 70
    64
  3
+++++++++++++++..+++++++++++++++
 72
    65
 73
     2
 40
80.0
 49
75.0
 49
-5.0
  0
LTYPE
  2
LONG5
 70
    64
  3
----------  --  ----------  --  
 72
    65
 73
     4
 40
60.0
 49
37.5
 49
-7.5
 49
7.5
 49
-7.5
  0
LTYPE
  2
dashed
 70
   64
  3
-------   -------------   ------
 72
   65
 73
    2
 40
7.5
 49
6
 49
-1.5
  0
LTYPE
  2
dashed_spaced
 70
   64
  3
----        --------        ----
 72
   65
 73
    2
 40
12
 49
6
 49
-6
  0
LTYPE
  2
long_dashed_dotted
 70
   64
  3
------------- --- --------------
 72
   65
 73
    4
 40
15.25
 49
12
 49
-1.5
 49
0.25
 49
-1.5
  0
LTYPE
  2
long_dashed_double-dotted
 70
   64
  3
----------- --- --- ------------
 72
   65
 73
    6
 40
17
 49
12
 49
-1.5
 49
0.25
 49
-1.5
 49
0.25
 49
-1.5
  0
LTYPE
  2
long_dashed_triplicate-dotted
 70
   64
  3
--------- --- --- --- ----------
 72
   65
 73
    8
 40
18.75
 49
12
 49
-1.5
 49
0.25
 49
-1.5
 49
0.25
 49
-1.5
 49
0.25
 49
-1.5
  0
LTYPE
  2
dotted
 70
   64
  3
   -       -       -       -    
 72
   65
 73
    2
 40
1.75
 49
0.25
 49
-1.5
  0
LTYPE
  2
chain
 70
   64
  3
-------------- -- --------------
 72
   65
 73
    4
 40
18.5
 49
12
 49
-1.5
 49
3.5
 49
-1.5
  0
LTYPE
  2
chain_double_dash
 70
   64
  3
------------ -- -- -------------
 72
   65
 73
    6
 40
23.5
 49
12
 49
-1.5
 49
3.5
 49
-1.5
 49
3.5
 49
-1.5
  0
LTYPE
  2
dashed_dotted
 70
   64
  3
-----------     -     ----------
 72
   65
 73
    4
 40
9.25
 49
6
 49
-1.5
 49
0.25
 49
-1.5
  0
LTYPE
  2
double-dashed_dotted
 70
   64
  3
------   -----------   -   -----
 72
   65
 73
    6
 40
16.75
 49
6
 49
-1.5
 49
6
 49
-1.5
 49
0.25
 49
-1.5
  0
LTYPE
  2
dashed_double-dotted
 70
   64
  3
---------    -    -    ---------
 72
   65
 73
    6
 40
11
 49
6
 49
-1.5
 49
0.25
 49
-1.5
 49
0.25
 49
-1.5
  0
LTYPE
  2
double-dashed_double-dotted
 70
   64
  3
-----   ---------   -   -   ----
 72
   65
 73
    8
 40
18.5
 49
6
 49
-1.5
 49
6
 49
-1.5
 49
0.25
 49
-1.5
 49
0.25
 49
-1.5
  0
LTYPE
  2
dashed_triplicate-dotted
 70
   64
  3
-------    -    -    -    ------
 72
   65
 73
    8
 40
12.75
 49
6
 49
-1.5
 49
0.25
 49
-1.5
 49
0.25
 49
-1.5
 49
0.25
 49
-1.5
  0
LTYPE
  2
double-dashed_triplicate-dotted
 70
   64
  3
-----  ---------  -  -  -  -----
 72
   65
 73
   10
 40
20.25
 49
6
 49
-1.5
 49
6
 49
-1.5
 49
0.25
 49
-1.5
 49
0.25
 49
-1.5
 49
0.25
 49
-1.5
  0
LTYPE
  2
undefined
 70
   64
  3
--------------------------------
 72
   65
 73
    0
 40
0
  0
LTYPE
  2
_
 70
   64
  3
                                
 72
   65
 73
    0
 40
0
  0
LTYPE
  2
__18
 70
   64
  3
                                
 72
   65
 73
    0
 40
0
  0
LTYPE
  2
__19
 70
   64
  3
                                
 72
   65
 73
    0
 40
0
  0
LTYPE
  2
__20
 70
   64
  3
                                
 72
   65
 73
    0
 40
0
  0
LTYPE
  2
__21
 70
   64
  3
                                
 72
   65
 73
    0
 40
0
  0
LTYPE
  2
__22
 70
   64
  3
                                
 72
   65
 73
    0
 40
0
  0
LTYPE
  2
__23
 70
   64
  3
                                
 72
   65
 73
    0
 40
0
  0
LTYPE
  2
__24
 70
   64
  3
                                
 72
   65
 73
    0
 40
0
  0
LTYPE
  2
__25
 70
   64
  3
                                
 72
   65
 73
    0
 40
0
  0
LTYPE
  2
__26
 70
   64
  3
                                
 72
   65
 73
    0
 40
0
  0
LTYPE
  2
__27
 70
   64
  3
                                
 72
   65
 73
    0
 40
0
  0
LTYPE
  2
__28
 70
   64
  3
                                
 72
   65
 73
    0
 40
0
  0
LTYPE
  2
__29
 70
   64
  3
                                
 72
   65
 73
    0
 40
0
  0
LTYPE
  2
__30
 70
   64
  3
                                
 72
   65
 73
    0
 40
0
  0
LTYPE
  2
__31
 70
   64
  3
                                
 72
   65
 73
    0
 40
0
  0
LTYPE
  2
__32
 70
   64
  3
                                
 72
   65
 73
    0
 40
0
  0
ENDTAB
  0
TABLE
  2
STYLE
  5
3
100
AcDbSymbolTable
 70
     1
  0
STYLE
  5
10
100
AcDbSymbolTableRecord
100
AcDbTextStyleTableRecord
  2
STANDARD
 70
     0
 40
0.0
 41
1.0
 50
0.0
 71
     0
 42
0.2
  3
txt
  4
bigfont.shx
  0
STYLE
  5
26
100
AcDbSymbolTableRecord
100
AcDbTextStyleTableRecord
  2
TATEGAKI
 70
    68
 40
0.0
 41
1.0
 50
0.0
 71
     0
 42
1.0
  3
txt
  4
bigfont.shx
  0
ENDTAB
  0
TABLE
  2
LAYER
 70
    6
  0
LAYER
  2
_0-0_
 70
   64
 62
    7
  6
CONTINUOUS
  0
LAYER
  2
_0-1_
 70
   64
 62
    7
  6
CONTINUOUS
  0
LAYER
  2
_0-3_
 70
   64
 62
    7
  6
CONTINUOUS
  0
LAYER
  2
_0-4_
 70
   64
 62
    7
  6
CONTINUOUS
  0
LAYER
  2
_0-5_
 70
   64
 62
    7
  6
CONTINUOUS
  0
LAYER
  2
ADD_LINE
 70
   64
 62
    7
  6
CONTINUOUS
  0
ENDTAB
  0
ENDSEC
  0
SECTION
  2
BLOCKS
  0
ENDSEC
  0
SECTION
  2
ENTITIES
  0
LINE
  8
_0-0_
  6
CONTINUOUS
 62
    7
 10
223876.27797970088
 20
101987.7689437982
 11
-161114.84210102577
 21
101987.7689437982
  0
LINE
  8
_0-3_
  6
CONTINUOUS
 62
    7
 10
83498.73316882785
 20
13082.29207305951
 11
23798.733168827828
 21
13082.29207305951
  0
LINE
  8
_0-4_
  6
CONTINUOUS
 62
  211
 10
-16501.266831172175
 20
92082.292073059492
 11
-16501.266831172175
 21
87782.292073059492
  0
LINE
  8
_0-4_
  6
CONTINUOUS
 62
  211
 10
83498.73316882785
 20
92082.292073059492
 11
83498.73316882785
 21
87782.292073059492
  0
LINE
  8
_0-4_
  6
DASHED1
 62
    7
 10
83498.73316882785
 20
59082.292073059492
 11
83498.73316882785
 21
41082.292073059492
  0
LINE
  8
_0-4_
  6
CONTINUOUS
 62
    7
 10
73798.733168827806
 20
68082.292073059492
 11
73798.733168827806
 21
60082.292073059492
  0
LINE
  8
_0-4_
  6
CONTINUOUS
 62
    7
 10
63798.733168827857
 20
68082.292073059492
 11
63798.733168827857
 21
60082.292073059492
  0
LINE
  8
_0-4_
  6
CONTINUOUS
 62
    7
 10
53798.733168827857
 20
68082.292073059492
 11
53798.733168827857
 21
60082.292073059492
  0
LINE
  8
_0-4_
  6
CONTINUOUS
 62
    7
 10
43798.73316882785
 20
68082.292073059492
 11
43798.73316882785
 21
60082.292073059492
  0
LINE
  8
_0-4_
  6
CONTINUOUS
 62
    7
 10
33798.73316882782
 20
68082.292073059492
 11
33798.73316882782
 21
60082.292073059492
  0
LINE
  8
_0-4_
  6
CONTINUOUS
 62
    7
 10
23798.733168827824
 20
68082.292073059492
 11
23798.733168827824
 21
60082.292073059492
  0
LINE
  8
_0-4_
  6
CONTINUOUS
 62
    7
 10
13798.733168827822
 20
68082.292073059492
 11
13798.733168827822
 21
60082.292073059492
  0
LINE
  8
_0-4_
  6
CONTINUOUS
 62
    7
 10
3798.7331688278231
 20
68082.292073059492
 11
3798.7331688278231
 21
60082.292073059492
  0
LINE
  8
_0-4_
  6
CONTINUOUS
 62
    7
 10
-6201.2668311721772
 20
68082.292073059492
 11
-6201.2668311721772
 21
60082.292073059492
  0
TEXT
  8
_0-4_
 62
    7
 10
-13611.490643689841
 20
8736.2444367639454
 40
1300
 41
1
 50
0
  1
①－１
  0
TEXT
  8
_0-4_
 62
    7
 10
-3311.4906436898309
 20
8736.2444367639454
 40
1300
 41
1
 50
0
  1
①－２
  0
TEXT
  8
_0-4_
 62
    7
 10
6688.5093563101581
 20
8736.2444367639454
 40
1300
 41
1
 50
0
  1
①－３
  0
TEXT
  8
_0-4_
 62
    7
 10
16688.509356310158
 20
8736.2444367639454
 40
1300
 41
1
 50
0
  1
①－４
  0
TEXT
  8
_0-4_
 62
    7
 10
26688.509356310158
 20
8736.2444367639454
 40
1300
 41
1
 50
0
  1
①－５
  0
TEXT
  8
_0-4_
 62
    7
 10
36688.509356310161
 20
8736.2444367639454
 40
1300
 41
1
 50
0
  1
①－６
  0
TEXT
  8
_0-4_
 62
    7
 10
46688.509356310183
 20
8736.2444367639454
 40
1300
 41
1
 50
0
  1
①－７
  0
TEXT
  8
_0-4_
 62
    7
 10
56688.50935631019
 20
8736.2444367639454
 40
1300
 41
1
 50
0
  1
①－８
  0
TEXT
  8
_0-4_
 62
    7
 10
66688.509356310198
 20
8736.2444367639454
 40
1300
 41
1
 50
0
  1
①－９
  0
TEXT
  8
_0-4_
 62
    7
 10
76688.509356310139
 20
8736.2444367639454
 40
1300
 41
1
 50
0
  1
①－１０
  0
TEXT
  8
_0-4_
 62
    7
 10
-14215.360996542607
 20
26852.355022347001
 40
1300
 41
1
 50
0
  1
②Ｗ－１
  0
TEXT
  8
_0-4_
 62
    7
 10
-3915.3609965426085
 20
26852.355022347001
 40
1300
 41
1
 50
0
  1
②Ｗ－２
  0
TEXT
  8
_0-4_
 62
    7
 10
6084.6390034574033
 20
26852.355022347001
 40
1300
 41
1
 50
0
  1
②Ｗ－３
  0
TEXT
  8
_0-4_
 62
    7
 10
16084.639003457403
 20
26852.355022347001
 40
1300
 41
1
 50
0
  1
②Ｗ－４
  0
TEXT
  8
_0-4_
 62
    7
 10
26084.639003457392
 20
26852.355022347001
 40
1300
 41
1
 50
0
  1
②Ｗ－５
  0
TEXT
  8
_0-4_
 62
    7
 10
36084.639003457392
 20
26852.355022347001
 40
1300
 41
1
 50
0
  1
②Ｗ－６
  0
TEXT
  8
_0-4_
 62
    7
 10
46084.639003457421
 20
26852.355022347001
 40
1300
 41
1
 50
0
  1
②Ｗ－７
  0
TEXT
  8
_0-4_
 62
    7
 10
56084.639003457428
 20
26852.355022347001
 40
1300
 41
1
 50
0
  1
②Ｗ－８
  0
TEXT
  8
_0-4_
 62
    7
 10
66084.639003457428
 20
26852.355022347001
 40
1300
 41
1
 50
0
  1
②Ｗ－９
  0
TEXT
  8
_0-4_
 62
    7
 10
75329.039369211721
 20
26852.355022347001
 40
1300
 41
1
 50
0
  1
②Ｗ－１０
  0
TEXT
  8
_0-4_
 62
    7
 10
26084.639003457392
 20
16719.107430597036
 40
1300
 41
1
 50
0
  1
②Ｅ－５
  0
TEXT
  8
_0-4_
 62
    7
 10
36084.639003457392
 20
16719.107430597036
 40
1300
 41
1
 50
0
  1
②Ｅ－６
  0
TEXT
  8
_0-4_
 62
    7
 10
46084.639003457421
 20
16719.107430597036
 40
1300
 41
1
 50
0
  1
②Ｅ－７
  0
TEXT
  8
_0-4_
 62
    7
 10
56084.639003457428
 20
16719.107430597036
 40
1300
 41
1
 50
0
  1
②Ｅ－８
  0
TEXT
  8
_0-4_
 62
    7
 10
66084.639003457414
 20
16719.107430597036
 40
1300
 41
1
 50
0
  1
②Ｅ－９
  0
TEXT
  8
_0-4_
 62
    7
 10
75329.039369211721
 20
16719.107430597036
 40
1300
 41
1
 50
0
  1
②Ｅ－１０
  0
TEXT
  8
_0-4_
 62
    7
 10
27250.905922041205
 20
37409.77636238699
 40
2000
 41
1
 50
0
  1
塗装ヤード
  0
TEXT
  8
_0-4_
 62
    7
 10
-13611.490643689841
 20
34785.746776232714
 40
1300
 41
1
 50
0
  1
③－１
  0
TEXT
  8
_0-4_
 62
    7
 10
-3311.4906436898309
 20
34785.746776232714
 40
1300
 41
1
 50
0
  1
③－２
  0
TEXT
  8
_0-4_
 62
    7
 10
6688.5093563101581
 20
34785.746776232714
 40
1300
 41
1
 50
0
  1
③－３
  0
TEXT
  8
_0-4_
 62
    7
 10
16688.509356310158
 20
34785.746776232714
 40
1300
 41
1
 50
0
  1
③－４
  0
TEXT
  8
_0-4_
 62
    7
 10
26688.509356310158
 20
34785.746776232714
 40
1300
 41
1
 50
0
  1
③－５
  0
TEXT
  8
_0-4_
 62
    7
 10
36688.509356310161
 20
34785.746776232714
 40
1300
 41
1
 50
0
  1
③－６
  0
TEXT
  8
_0-4_
 62
    7
 10
46688.509356310183
 20
34785.746776232714
 40
1300
 41
1
 50
0
  1
③－７
  0
TEXT
  8
_0-4_
 62
    7
 10
56688.50935631019
 20
34785.746776232714
 40
1300
 41
1
 50
0
  1
③－８
  0
TEXT
  8
_0-4_
 62
    7
 10
66688.509356310198
 20
34785.746776232714
 40
1300
 41
1
 50
0
  1
③－９
  0
TEXT
  8
_0-4_
 62
    7
 10
76688.509356310139
 20
34785.746776232714
 40
1300
 41
1
 50
0
  1
③－１０
  0
TEXT
  8
_0-4_
 62
    7
 10
-14215.360996542607
 20
44805.118054975289
 40
1300
 41
1
 50
0
  1
④Ｅ－１
  0
TEXT
  8
_0-4_
 62
    7
 10
-14215.360996542607
 20
53805.118054975289
 40
1300
 41
1
 50
0
  1
④Ｗ－１
  0
TEXT
  8
_0-4_
 62
    7
 10
-3915.3609965426085
 20
53805.118054975289
 40
1300
 41
1
 50
0
  1
④Ｗ－２
  0
TEXT
  8
_0-4_
 62
    7
 10
-3915.3609965426085
 20
44805.118054975289
 40
1300
 41
1
 50
0
  1
④Ｅ－２
  0
TEXT
  8
_0-4_
 62
    7
 10
6084.6390034574033
 20
44805.118054975289
 40
1300
 41
1
 50
0
  1
④Ｅ－３
  0
TEXT
  8
_0-4_
 62
    7
 10
6084.6390034574033
 20
53805.118054975289
 40
1300
 41
1
 50
0
  1
④Ｗ－３
  0
TEXT
  8
_0-4_
 62
    7
 10
16084.639003457403
 20
53805.118054975289
 40
1300
 41
1
 50
0
  1
④Ｗ－４
  0
TEXT
  8
_0-4_
 62
    7
 10
16084.639003457403
 20
44805.118054975289
 40
1300
 41
1
 50
0
  1
④Ｅ－４
  0
TEXT
  8
_0-4_
 62
    7
 10
26084.639003457392
 20
53805.118054975289
 40
1300
 41
1
 50
0
  1
④Ｗ－５
  0
TEXT
  8
_0-4_
 62
    7
 10
26084.639003457392
 20
44805.118054975289
 40
1300
 41
1
 50
0
  1
④Ｅ－５
  0
TEXT
  8
_0-4_
 62
    7
 10
36084.639003457392
 20
53805.118054975289
 40
1300
 41
1
 50
0
  1
④Ｗ－６
  0
TEXT
  8
_0-4_
 62
    7
 10
36084.639003457392
 20
44805.118054975289
 40
1300
 41
1
 50
0
  1
④Ｅ－６
  0
TEXT
  8
_0-4_
 62
    7
 10
46084.639003457421
 20
53805.118054975289
 40
1300
 41
1
 50
0
  1
④Ｗ－７
  0
TEXT
  8
_0-4_
 62
    7
 10
46084.639003457421
 20
44805.118054975289
 40
1300
 41
1
 50
0
  1
④Ｅ－７
  0
TEXT
  8
_0-4_
 62
    7
 10
56084.639003457428
 20
44805.118054975289
 40
1300
 41
1
 50
0
  1
④Ｅ－８
  0
TEXT
  8
_0-4_
 62
    7
 10
56084.639003457428
 20
53805.118054975289
 40
1300
 41
1
 50
0
  1
④Ｗ－８
  0
TEXT
  8
_0-4_
 62
    7
 10
66084.639003457428
 20
44805.118054975289
 40
1300
 41
1
 50
0
  1
④Ｅ－９
  0
TEXT
  8
_0-4_
 62
    7
 10
66084.639003457428
 20
53805.118054975289
 40
1300
 41
1
 50
0
  1
④Ｗ－９
  0
TEXT
  8
_0-4_
 62
    7
 10
75301.852591818867
 20
44820.989130116526
 40
1300
 41
1
 50
0
  1
④Ｅ－１０
  0
TEXT
  8
_0-4_
 62
    7
 10
75329.039369211721
 20
53805.118054975289
 40
1300
 41
1
 50
0
  1
④Ｗ－１０
  0
TEXT
  8
_0-4_
 62
    7
 10
-13611.490643689841
 20
63343.995575417167
 40
1300
 41
1
 50
0
  1
⑤－１
  0
TEXT
  8
_0-4_
 62
    7
 10
-3311.4906436898309
 20
63343.995575417167
 40
1300
 41
1
 50
0
  1
⑤－２
  0
TEXT
  8
_0-4_
 62
    7
 10
6688.5093563101581
 20
63343.995575417167
 40
1300
 41
1
 50
0
  1
⑤－３
  0
TEXT
  8
_0-4_
 62
    7
 10
16688.509356310158
 20
63343.995575417167
 40
1300
 41
1
 50
0
  1
⑤－４
  0
TEXT
  8
_0-4_
 62
    7
 10
26688.509356310158
 20
63343.995575417167
 40
1300
 41
1
 50
0
  1
⑤－５
  0
TEXT
  8
_0-4_
 62
    7
 10
36688.509356310161
 20
63343.995575417167
 40
1300
 41
1
 50
0
  1
⑤－６
  0
TEXT
  8
_0-4_
 62
    7
 10
46688.509356310183
 20
63343.995575417167
 40
1300
 41
1
 50
0
  1
⑤－７
  0
TEXT
  8
_0-4_
 62
    7
 10
56688.50935631019
 20
63343.995575417167
 40
1300
 41
1
 50
0
  1
⑤－８
  0
TEXT
  8
_0-4_
 62
    7
 10
66688.509356310198
 20
63343.995575417167
 40
1300
 41
1
 50
0
  1
⑤－９
  0
TEXT
  8
_0-4_
 62
    7
 10
76688.509356310139
 20
63343.995575417167
 40
1300
 41
1
 50
0
  1
⑤－１０
  0
TEXT
  8
_0-4_
 62
    7
 10
-14215.360996542607
 20
72805.118054975289
 40
1300
 41
1
 50
0
  1
⑥Ｅ－１
  0
TEXT
  8
_0-4_
 62
    7
 10
-14215.360996542607
 20
81805.118054975289
 40
1300
 41
1
 50
0
  1
⑥Ｗ－１
  0
TEXT
  8
_0-4_
 62
    7
 10
-3915.3609965426085
 20
72805.118054975289
 40
1300
 41
1
 50
0
  1
⑥Ｅ－２
  0
TEXT
  8
_0-4_
 62
    7
 10
-3915.3609965426085
 20
81805.118054975289
 40
1300
 41
1
 50
0
  1
⑥Ｗ－２
  0
TEXT
  8
_0-4_
 62
    7
 10
6084.6390034574033
 20
72805.118054975289
 40
1300
 41
1
 50
0
  1
⑥Ｅ－３
  0
TEXT
  8
_0-4_
 62
    7
 10
6084.6390034574033
 20
81805.118054975289
 40
1300
 41
1
 50
0
  1
⑥Ｗ－３
  0
TEXT
  8
_0-4_
 62
    7
 10
16084.639003457403
 20
72805.118054975289
 40
1300
 41
1
 50
0
  1
⑥Ｅ－４
  0
TEXT
  8
_0-4_
 62
    7
 10
16084.639003457403
 20
81805.118054975289
 40
1300
 41
1
 50
0
  1
⑥Ｗ－４
  0
TEXT
  8
_0-4_
 62
    7
 10
26084.639003457392
 20
72805.118054975289
 40
1300
 41
1
 50
0
  1
⑥Ｅ－５
  0
TEXT
  8
_0-4_
 62
    7
 10
26084.639003457392
 20
81805.118054975289
 40
1300
 41
1
 50
0
  1
⑥Ｗ－５
  0
TEXT
  8
_0-4_
 62
    7
 10
36084.639003457392
 20
72805.118054975289
 40
1300
 41
1
 50
0
  1
⑥Ｅ－６
  0
TEXT
  8
_0-4_
 62
    7
 10
36084.639003457392
 20
81805.118054975289
 40
1300
 41
1
 50
0
  1
⑥Ｗ－６
  0
TEXT
  8
_0-4_
 62
    7
 10
46084.639003457421
 20
72805.118054975289
 40
1300
 41
1
 50
0
  1
⑥Ｅ－７
  0
TEXT
  8
_0-4_
 62
    7
 10
46084.639003457421
 20
81805.118054975289
 40
1300
 41
1
 50
0
  1
⑥Ｗ－７
  0
TEXT
  8
_0-4_
 62
    7
 10
56084.639003457428
 20
72805.118054975289
 40
1300
 41
1
 50
0
  1
⑥Ｅ－８
  0
TEXT
  8
_0-4_
 62
    7
 10
56084.639003457428
 20
81805.118054975289
 40
1300
 41
1
 50
0
  1
⑥Ｗ－８
  0
TEXT
  8
_0-4_
 62
    7
 10
66084.639003457428
 20
72805.118054975289
 40
1300
 41
1
 50
0
  1
⑥Ｅ－９
  0
TEXT
  8
_0-4_
 62
    7
 10
66084.639003457428
 20
81805.118054975289
 40
1300
 41
1
 50
0
  1
⑥Ｗ－９
  0
TEXT
  8
_0-4_
 62
    7
 10
75329.039369211721
 20
72805.118054975289
 40
1300
 41
1
 50
0
  1
⑥Ｅ－１０
  0
TEXT
  8
_0-4_
 62
    7
 10
75329.039369211721
 20
81805.118054975289
 40
1300
 41
1
 50
0
  1
⑥Ｗ－１０
  0
TEXT
  8
_0-4_
 62
    7
 10
-13611.490643689841
 20
89313.765771494101
 40
1300
 41
1
 50
0
  1
⑦－１
  0
TEXT
  8
_0-4_
 62
    7
 10
-3311.4906436898309
 20
89313.765771494101
 40
1300
 41
1
 50
0
  1
⑦－２
  0
TEXT
  8
_0-4_
 62
    7
 10
6688.5093563101581
 20
89313.765771494101
 40
1300
 41
1
 50
0
  1
⑦－３
  0
TEXT
  8
_0-4_
 62
    7
 10
16688.509356310158
 20
89313.765771494101
 40
1300
 41
1
 50
0
  1
⑦－４
  0
TEXT
  8
_0-4_
 62
    7
 10
26688.509356310158
 20
89313.765771494101
 40
1300
 41
1
 50
0
  1
⑦－５
  0
TEXT
  8
_0-4_
 62
    7
 10
36688.509356310161
 20
89313.765771494101
 40
1300
 41
1
 50
0
  1
⑦－６
  0
TEXT
  8
_0-4_
 62
    7
 10
46688.509356310183
 20
89313.765771494101
 40
1300
 41
1
 50
0
  1
⑦－７
  0
TEXT
  8
_0-4_
 62
    7
 10
56688.50935631019
 20
89313.765771494101
 40
1300
 41
1
 50
0
  1
⑦－８
  0
TEXT
  8
_0-4_
 62
    7
 10
66688.509356310198
 20
89313.765771494101
 40
1300
 41
1
 50
0
  1
⑦－９
  0
TEXT
  8
_0-4_
 62
    7
 10
76688.509356310139
 20
89313.765771494101
 40
1300
 41
1
 50
0
  1
⑦－１０
  0
LINE
  8
_0-4_
  6
CONTINUOUS
 62
    4
 10
-16501.266831172175
 20
12082.292073059488
 11
-16501.266831172175
 21
6826.6929277921917
  0
LINE
  8
_0-4_
  6
CONTINUOUS
 62
    4
 10
83498.73316882785
 20
12082.292073059488
 11
83498.73316882785
 21
6826.6929277921917
  0
LINE
  8
_0-4_
  6
CONTINUOUS
 62
    4
 10
83498.73316882785
 20
6826.6929277921917
 11
-16501.266831172175
 21
6826.6929277921917
  0
LINE
  8
_0-4_
  6
CONTINUOUS
 62
    4
 10
-6201.2668311721772
 20
12082.292073059488
 11
-6201.2668311721772
 21
6826.6929277921917
  0
LINE
  8
_0-4_
  6
CONTINUOUS
 62
    4
 10
3798.7331688278231
 20
12082.292073059488
 11
3798.7331688278231
 21
6826.6929277921917
  0
LINE
  8
_0-4_
  6
CONTINUOUS
 62
    4
 10
13798.733168827822
 20
12082.292073059488
 11
13798.733168827822
 21
6826.6929277921917
  0
LINE
  8
_0-4_
  6
CONTINUOUS
 62
    4
 10
23798.733168827824
 20
12082.292073059488
 11
23798.733168827824
 21
6826.6929277921917
  0
LINE
  8
_0-4_
  6
CONTINUOUS
 62
    4
 10
33798.73316882782
 20
12082.292073059488
 11
33798.73316882782
 21
6826.6929277921917
  0
LINE
  8
_0-4_
  6
CONTINUOUS
 62
    4
 10
43798.733168827828
 20
12082.292073059488
 11
43798.733168827828
 21
6826.6929277921917
  0
LINE
  8
_0-4_
  6
CONTINUOUS
 62
    4
 10
53798.733168827835
 20
12082.292073059488
 11
53798.733168827835
 21
6826.6929277921917
  0
LINE
  8
_0-4_
  6
CONTINUOUS
 62
    4
 10
63798.733168827835
 20
12082.292073059488
 11
63798.733168827835
 21
6826.6929277921917
  0
LINE
  8
_0-4_
  6
CONTINUOUS
 62
    4
 10
73798.733168827835
 20
12082.292073059488
 11
73798.733168827835
 21
6826.6929277921917
  0
LINE
  8
_0-4_
  6
CONTINUOUS
 62
    2
 10
-16501.266831172175
 20
31082.292073059488
 11
-16501.266831172175
 21
24574.303664167906
  0
LINE
  8
_0-4_
  6
CONTINUOUS
 62
    2
 10
33798.73316882782
 20
31082.292073059488
 11
33798.73316882782
 21
13082.292073059488
  0
LINE
  8
_0-4_
  6
CONTINUOUS
 62
    2
 10
43798.733168827828
 20
31082.292073059488
 11
43798.733168827828
 21
13082.292073059488
  0
LINE
  8
_0-4_
  6
CONTINUOUS
 62
    2
 10
53798.733168827835
 20
31082.292073059488
 11
53798.733168827835
 21
13082.292073059488
  0
LINE
  8
_0-4_
  6
CONTINUOUS
 62
    2
 10
63798.733168827835
 20
31082.292073059488
 11
63798.733168827835
 21
13082.292073059488
  0
LINE
  8
_0-4_
  6
CONTINUOUS
 62
    2
 10
73798.733168827835
 20
31082.292073059488
 11
73798.733168827835
 21
13082.292073059488
  0
LINE
  8
_0-4_
  6
CONTINUOUS
 62
    3
 10
-16501.266831172175
 20
40082.292073059492
 11
-16501.266831172175
 21
32082.292073059488
  0
LINE
  8
_0-4_
  6
CONTINUOUS
 62
    3
 10
83498.73316882785
 20
40082.292073059492
 11
83498.73316882785
 21
32082.292073059488
  0
LINE
  8
_0-4_
  6
CONTINUOUS
 62
    3
 10
-6201.2668311721772
 20
40082.292073059492
 11
-6201.2668311721772
 21
32082.292073059488
  0
LINE
  8
_0-4_
  6
CONTINUOUS
 62
    3
 10
3798.7331688278231
 20
40082.292073059492
 11
3798.7331688278231
 21
32082.292073059488
  0
LINE
  8
_0-4_
  6
CONTINUOUS
 62
    3
 10
13798.733168827822
 20
40082.292073059492
 11
13798.733168827822
 21
32082.292073059488
  0
LINE
  8
_0-4_
  6
CONTINUOUS
 62
    3
 10
23798.733168827824
 20
40082.292073059492
 11
23798.733168827824
 21
32082.292073059488
  0
LINE
  8
_0-4_
  6
CONTINUOUS
 62
    3
 10
33798.73316882782
 20
40082.292073059492
 11
33798.73316882782
 21
32082.292073059488
  0
LINE
  8
_0-4_
  6
CONTINUOUS
 62
    3
 10
43798.733168827828
 20
40082.292073059492
 11
43798.733168827828
 21
32082.292073059488
  0
LINE
  8
_0-4_
  6
CONTINUOUS
 62
    3
 10
53798.733168827835
 20
40082.292073059492
 11
53798.733168827835
 21
32082.292073059488
  0
LINE
  8
_0-4_
  6
CONTINUOUS
 62
    3
 10
63798.733168827835
 20
40082.292073059492
 11
63798.733168827835
 21
32082.292073059488
  0
LINE
  8
_0-4_
  6
CONTINUOUS
 62
    3
 10
73798.733168827835
 20
40082.292073059492
 11
73798.733168827835
 21
32082.292073059488
  0
LINE
  8
_0-4_
  6
CONTINUOUS
 62
  212
 10
-16501.266831172175
 20
59082.292073059492
 11
-16501.266831172175
 21
41082.292073059492
  0
LINE
  8
_0-4_
  6
CONTINUOUS
 62
  212
 10
83498.73316882785
 20
59082.292073059492
 11
83498.73316882785
 21
41082.292073059492
  0
LINE
  8
_0-4_
  6
CONTINUOUS
 62
  212
 10
-6201.2668311721772
 20
41082.292073059492
 11
-6201.2668311721772
 21
59082.292073059492
  0
LINE
  8
_0-4_
  6
CONTINUOUS
 62
  212
 10
3798.7331688278231
 20
41082.292073059492
 11
3798.7331688278231
 21
59082.292073059492
  0
LINE
  8
_0-4_
  6
CONTINUOUS
 62
  212
 10
13798.733168827822
 20
41082.292073059492
 11
13798.733168827822
 21
59082.292073059492
  0
LINE
  8
_0-4_
  6
CONTINUOUS
 62
  212
 10
23798.733168827824
 20
41082.292073059492
 11
23798.733168827824
 21
59082.292073059492
  0
LINE
  8
_0-4_
  6
CONTINUOUS
 62
  212
 10
33798.73316882782
 20
41082.292073059492
 11
33798.73316882782
 21
59082.292073059492
  0
LINE
  8
_0-4_
  6
CONTINUOUS
 62
  212
 10
43798.733168827828
 20
41082.292073059492
 11
43798.733168827828
 21
59082.292073059492
  0
LINE
  8
_0-4_
  6
CONTINUOUS
 62
  212
 10
53798.733168827835
 20
41082.292073059492
 11
53798.733168827835
 21
59082.292073059492
  0
LINE
  8
_0-4_
  6
CONTINUOUS
 62
  212
 10
63798.733168827835
 20
41082.292073059492
 11
63798.733168827835
 21
59082.292073059492
  0
LINE
  8
_0-4_
  6
CONTINUOUS
 62
  212
 10
73798.733168827835
 20
41082.292073059492
 11
73798.733168827835
 21
59082.292073059492
  0
LINE
  8
_0-4_
  6
CONTINUOUS
 62
  212
 10
83498.73316882785
 20
50082.292073059492
 11
-16501.266831172175
 21
50082.292073059492
  0
LINE
  8
_0-4_
  6
CONTINUOUS
 62
    7
 10
-16501.266831172175
 20
68082.292073059492
 11
-16501.266831172175
 21
60082.292073059492
  0
LINE
  8
_0-4_
  6
CONTINUOUS
 62
    7
 10
83498.73316882785
 20
68082.292073059492
 11
83498.73316882785
 21
60082.292073059492
  0
LINE
  8
_0-4_
  6
CONTINUOUS
 62
  160
 10
-16501.266831172175
 20
87082.292073059492
 11
-16501.266831172175
 21
69082.292073059492
  0
LINE
  8
_0-4_
  6
CONTINUOUS
 62
  160
 10
83498.73316882785
 20
87082.292073059492
 11
83498.73316882785
 21
69082.292073059492
  0
LINE
  8
_0-4_
  6
CONTINUOUS
 62
  160
 10
83498.73316882785
 20
78082.292073059492
 11
-16501.266831172175
 21
78082.292073059492
  0
LINE
  8
_0-4_
  6
CONTINUOUS
 62
  160
 10
-6201.2668311721772
 20
69082.292073059492
 11
-6201.2668311721772
 21
87082.292073059492
  0
LINE
  8
_0-4_
  6
CONTINUOUS
 62
  160
 10
3798.7331688278231
 20
69082.292073059492
 11
3798.7331688278231
 21
87082.292073059492
  0
LINE
  8
_0-4_
  6
CONTINUOUS
 62
  160
 10
13798.733168827822
 20
69082.292073059492
 11
13798.733168827822
 21
87082.292073059492
  0
LINE
  8
_0-4_
  6
CONTINUOUS
 62
  160
 10
23798.733168827824
 20
69082.292073059492
 11
23798.733168827824
 21
87082.292073059492
  0
LINE
  8
_0-4_
  6
CONTINUOUS
 62
  160
 10
33798.73316882782
 20
69082.292073059492
 11
33798.73316882782
 21
87082.292073059492
  0
LINE
  8
_0-4_
  6
CONTINUOUS
 62
  160
 10
43798.733168827828
 20
69082.292073059492
 11
43798.733168827828
 21
87082.292073059492
  0
LINE
  8
_0-4_
  6
CONTINUOUS
 62
  160
 10
53798.733168827835
 20
69082.292073059492
 11
53798.733168827835
 21
87082.292073059492
  0
LINE
  8
_0-4_
  6
CONTINUOUS
 62
  160
 10
63798.733168827835
 20
69082.292073059492
 11
63798.733168827835
 21
87082.292073059492
  0
LINE
  8
_0-4_
  6
CONTINUOUS
 62
  160
 10
73798.733168827835
 20
69082.292073059492
 11
73798.733168827835
 21
87082.292073059492
  0
LINE
  8
_0-4_
  6
CONTINUOUS
 62
  211
 10
83498.73316882785
 20
92082.292073059492
 11
-16501.266831172175
 21
92082.292073059492
  0
LINE
  8
_0-4_
  6
CONTINUOUS
 62
  211
 10
-6201.2668311721772
 20
87782.292073059492
 11
-6201.2668311721772
 21
92082.292073059492
  0
LINE
  8
_0-4_
  6
CONTINUOUS
 62
  211
 10
3798.7331688278231
 20
87782.292073059492
 11
3798.7331688278231
 21
92082.292073059492
  0
LINE
  8
_0-4_
  6
CONTINUOUS
 62
  211
 10
13798.733168827822
 20
87782.292073059492
 11
13798.733168827822
 21
92082.292073059492
  0
LINE
  8
_0-4_
  6
CONTINUOUS
 62
  211
 10
23798.733168827824
 20
87782.292073059492
 11
23798.733168827824
 21
92082.292073059492
  0
LINE
  8
_0-4_
  6
CONTINUOUS
 62
  211
 10
33798.73316882782
 20
87782.292073059492
 11
33798.73316882782
 21
92082.292073059492
  0
LINE
  8
_0-4_
  6
CONTINUOUS
 62
  211
 10
43798.733168827828
 20
87782.292073059492
 11
43798.733168827828
 21
92082.292073059492
  0
LINE
  8
_0-4_
  6
CONTINUOUS
 62
  211
 10
53798.733168827835
 20
87782.292073059492
 11
53798.733168827835
 21
92082.292073059492
  0
LINE
  8
_0-4_
  6
CONTINUOUS
 62
  211
 10
63798.733168827835
 20
87782.292073059492
 11
63798.733168827835
 21
92082.292073059492
  0
LINE
  8
_0-4_
  6
CONTINUOUS
 62
  211
 10
73798.733168827835
 20
87782.292073059492
 11
73798.733168827835
 21
92082.292073059492
  0
LINE
  8
_0-4_
  6
CONTINUOUS
 62
    2
 10
23798.733168827824
 20
22082.292073059488
 11
23974.036785169028
 21
22082.292073059488
  0
LINE
  8
_0-4_
  6
CONTINUOUS
 62
    2
 10
23974.036785169028
 20
22082.292073059488
 11
83498.73316882785
 21
22082.292073059488
  0
LINE
  8
_0-4_
  6
CONTINUOUS
 62
    7
 10
83498.73316882785
 20
60082.292073059514
 11
-16501.266831172175
 21
60082.292073059514
  0
LINE
  8
_0-4_
  6
CONTINUOUS
 62
    2
 10
83498.73316882785
 20
13612.724058091931
 11
83498.73316882785
 21
13082.292073059488
  0
LINE
  8
_0-4_
  6
CONTINUOUS
 62
    2
 10
83498.73316882785
 20
13082.292073059488
 11
23798.733168827824
 21
13082.292073059488
  0
LINE
  8
_0-4_
  6
CONTINUOUS
 62
    2
 10
83498.73316882785
 20
31082.292073059488
 11
83498.73316882785
 21
30975.690249271679
  0
LINE
  8
_0-4_
  6
CONTINUOUS
 62
    2
 10
83498.73316882785
 20
30975.690249271679
 11
83498.73316882785
 21
13612.724058091931
  0
LINE
  8
_0-4_
  6
CONTINUOUS
 62
    2
 10
83498.73316882785
 20
31082.292073059488
 11
-16501.266831172175
 21
31082.292073059488
  0
LINE
  8
_0-4_
  6
CONTINUOUS
 62
    2
 10
-16501.266831172175
 20
24574.303664167906
 11
23798.733168827824
 21
24574.303664167906
  0
LINE
  8
_0-4_
  6
CONTINUOUS
 62
    4
 10
-16501.266831172175
 20
12082.292073059488
 11
83498.73316882785
 21
12082.292073059488
  0
LINE
  8
_0-4_
  6
CONTINUOUS
 62
    3
 10
-16501.266831172175
 20
32082.292073059488
 11
83498.73316882785
 21
32082.292073059488
  0
LINE
  8
_0-4_
  6
CONTINUOUS
 62
    3
 10
-16501.266831172175
 20
40082.292073059492
 11
83498.73316882785
 21
40082.292073059492
  0
LINE
  8
_0-4_
  6
CONTINUOUS
 62
  212
 10
-16501.266831172175
 20
41082.292073059492
 11
83498.73316882785
 21
41082.292073059492
  0
LINE
  8
_0-4_
  6
CONTINUOUS
 62
  212
 10
-16501.266831172175
 20
59082.292073059492
 11
83498.73316882785
 21
59082.292073059492
  0
LINE
  8
_0-4_
  6
CONTINUOUS
 62
    7
 10
-16501.266831172175
 20
68082.292073059492
 11
83498.73316882785
 21
68082.292073059492
  0
LINE
  8
_0-4_
  6
CONTINUOUS
 62
  160
 10
-16501.266831172175
 20
69082.292073059492
 11
83498.73316882785
 21
69082.292073059492
  0
LINE
  8
_0-4_
  6
CONTINUOUS
 62
  160
 10
83498.73316882785
 20
87082.292073059492
 11
-16501.266831172175
 21
87082.292073059492
  0
LINE
  8
_0-4_
  6
CONTINUOUS
 62
  211
 10
-16501.266831172175
 20
87782.292073059492
 11
83498.73316882785
 21
87782.292073059492
  0
LINE
  8
_0-0_
  6
CONTINUOUS
 62
    7
 10
-161114.84210102577
 20
-20528.4772721453
 11
223876.27797970088
 21
-20528.4772721453
  0
LINE
  8
_0-0_
  6
CONTINUOUS
 62
    7
 10
223876.27797970088
 20
-20528.4772721453
 11
223876.27797970088
 21
101987.7689437982
  0
LINE
  8
_0-3_
  6
CONTINUOUS
 62
    7
 10
-103308.49308117217
 20
5085.9308230595388
 11
-88674.696831172201
 21
4659.7895730595382
  0
LINE
  8
_0-3_
  6
CONTINUOUS
 62
    7
 10
-145770.52436218727
 20
68970.575558970376
 11
-148167.92283146179
 21
69082.292073059506
  0
LINE
  8
_0-3_
  6
CONTINUOUS
 62
    7
 10
-29501.266831172175
 20
43582.292073059514
 11
-26801.266831172175
 21
43582.292073059514
  0
LINE
  8
_0-3_
  6
CONTINUOUS
 62
    7
 10
-148167.92283146179
 20
69082.292073059506
 11
-148377.39129537891
 21
64587.169943169763
  0
LINE
  8
_0-3_
  6
CONTINUOUS
 62
    7
 10
-148377.39129537885
 20
64587.169943169763
 11
-145979.99282610433
 21
64475.453429080633
  0
LINE
  8
_0-3_
  6
CONTINUOUS
 62
    7
 10
-145979.99282610433
 20
64475.453429080633
 11
-145770.52436218722
 21
68970.575558970376
  0
LINE
  8
_0-3_
  6
CONTINUOUS
 62
    7
 10
-16501.266831172164
 20
31082.29207305951
 11
83498.73316882785
 21
31082.29207305951
  0
LINE
  8
_0-3_
  6
CONTINUOUS
 62
    7
 10
83498.73316882785
 20
32082.29207305951
 11
-16501.266831172164
 21
32082.29207305951
  0
LINE
  8
_0-3_
  6
CONTINUOUS
 62
    7
 10
-32584.387131750132
 20
96592.292073059565
 11
-32584.387131750132
 21
94192.292073059565
  0
LINE
  8
_0-3_
  6
CONTINUOUS
 62
    7
 10
-32584.387131750132
 20
94192.292073059565
 11
-28084.387131750132
 21
94192.292073059565
  0
LINE
  8
_0-3_
  6
CONTINUOUS
 62
    7
 10
-28084.387131750132
 20
94192.292073059565
 11
-28084.387131750132
 21
96592.292073059565
  0
LINE
  8
_0-3_
  6
CONTINUOUS
 62
    7
 10
-28084.387131750132
 20
96592.292073059565
 11
-32584.387131750132
 21
96592.292073059565
  0
LINE
  8
_0-3_
  6
CONTINUOUS
 62
    7
 10
-136534.49622738632
 20
68898.192891516897
 11
-27084.387131750132
 21
68898.192891516897
  0
LINE
  8
_0-3_
  6
CONTINUOUS
 62
    7
 10
-27084.387131750132
 20
86243.875514702289
 11
-136520.58332794628
 21
86243.875514702289
  0
LINE
  8
_0-3_
  6
CONTINUOUS
 62
    7
 10
83498.73316882785
 20
87782.292073059506
 11
-16501.266831172175
 21
87782.292073059506
  0
LINE
  8
_0-3_
  6
CONTINUOUS
 62
    7
 10
-16501.266831172164
 20
87082.292073059506
 11
83498.73316882785
 21
87082.292073059506
  0
LINE
  8
_0-3_
  6
CONTINUOUS
 62
    7
 10
83498.73316882785
 20
69082.292073059506
 11
-16501.266831172175
 21
69082.292073059506
  0
LINE
  8
_0-3_
  6
CONTINUOUS
 62
    7
 10
-16501.266831172164
 20
68082.292073059506
 11
83498.73316882785
 21
68082.292073059506
  0
LINE
  8
_0-3_
  6
CONTINUOUS
 62
    7
 10
-16501.266831172164
 20
59082.292073059514
 11
83498.73316882785
 21
59082.292073059514
  0
LINE
  8
_0-3_
  6
CONTINUOUS
 62
    7
 10
83498.73316882785
 20
60082.292073059514
 11
-16501.266831172175
 21
60082.292073059514
  0
LINE
  8
_0-3_
  6
CONTINUOUS
 62
    7
 10
83498.73316882785
 20
41082.292073059514
 11
-16501.266831172175
 21
41082.292073059514
  0
LINE
  8
_0-3_
  6
CONTINUOUS
 62
    7
 10
-16501.266831172164
 20
40082.292073059514
 11
83498.73316882785
 21
40082.292073059514
  0
LINE
  8
_0-3_
  6
CONTINUOUS
 62
    7
 10
-16501.266831172164
 20
12082.29207305951
 11
83498.73316882785
 21
12082.29207305951
  0
LINE
  8
_0-3_
  6
CONTINUOUS
 62
    7
 10
93498.73316882785
 20
13082.29207305951
 11
110998.73316882786
 21
13082.29207305951
  0
LINE
  8
_0-3_
  6
CONTINUOUS
 62
    7
 10
110998.73316882786
 20
13082.29207305951
 11
110998.73316882786
 21
87082.292073059506
  0
LINE
  8
_0-3_
  6
CONTINUOUS
 62
    7
 10
110998.73316882786
 20
87082.292073059506
 11
93498.73316882785
 21
87082.292073059506
  0
LINE
  8
_0-3_
  6
CONTINUOUS
 62
    7
 10
93498.73316882785
 20
87082.292073059506
 11
93498.73316882785
 21
13082.29207305951
  0
LINE
  8
_0-3_
  6
CONTINUOUS
 62
    7
 10
120606.09771518579
 20
13082.29207305951
 11
136406.0977151858
 21
13082.29207305951
  0
LINE
  8
_0-3_
  6
CONTINUOUS
 62
    7
 10
120606.09771518579
 20
84477.944043653638
 11
120606.09771518579
 21
13082.29207305951
  0
LINE
  8
_0-3_
  6
CONTINUOUS
 62
    7
 10
178202.41319665347
 20
12438.223030579229
 11
178202.41319665347
 21
91078.788116351192
  0
LINE
  8
_0-3_
  6
CONTINUOUS
 62
    7
 10
156624.20936214283
 20
91078.788116351192
 11
156624.20936214283
 21
12438.223030579229
  0
LINE
  8
_0-3_
  6
CONTINUOUS
 62
    7
 10
-131901.26683117219
 20
41782.292073059514
 11
-126501.26683117219
 21
41782.292073059514
  0
LINE
  8
_0-3_
  6
CONTINUOUS
 62
    7
 10
-126501.26683117219
 20
41782.292073059514
 11
-126501.26683117219
 21
26982.29207305951
  0
LINE
  8
_0-3_
  6
CONTINUOUS
 62
    7
 10
-126501.26683117219
 20
26982.29207305951
 11
-124051.06595635638
 21
26982.29207305951
  0
LINE
  8
_0-3_
  6
CONTINUOUS
 62
    7
 10
-124051.06595635638
 20
26982.29207305951
 11
-124051.06595635638
 21
21848.292073059496
  0
LINE
  8
_0-3_
  6
CONTINUOUS
 62
    7
 10
-124051.06595635638
 20
21848.292073059496
 11
-69501.266831172193
 21
21848.292073059496
  0
LINE
  8
_0-3_
  6
CONTINUOUS
 62
    7
 10
-69501.266831172193
 20
21848.292073059496
 11
-69501.266831172193
 21
26982.29207305951
  0
LINE
  8
_0-3_
  6
CONTINUOUS
 62
    7
 10
-69501.266831172193
 20
26982.29207305951
 11
-59901.266831172186
 21
26982.29207305951
  0
LINE
  8
_0-3_
  6
CONTINUOUS
 62
    7
 10
-59901.266831172186
 20
26982.29207305951
 11
-59901.266831172186
 21
21848.292073059496
  0
LINE
  8
_0-3_
  6
CONTINUOUS
 62
    7
 10
-59901.266831172186
 20
21848.292073059496
 11
-31101.266831172175
 21
21848.292073059496
  0
LINE
  8
_0-3_
  6
CONTINUOUS
 62
    7
 10
-31101.266831172175
 20
21848.292073059496
 11
-31101.266831172175
 21
26982.29207305951
  0
LINE
  8
_0-3_
  6
CONTINUOUS
 62
    7
 10
-31101.266831172175
 20
26982.29207305951
 11
-24701.266831172175
 21
26982.29207305951
  0
LINE
  8
_0-3_
  6
CONTINUOUS
 62
    7
 10
-24701.266831172175
 20
26982.29207305951
 11
-24701.266831172175
 21
35382.292073059514
  0
LINE
  8
_0-3_
  6
CONTINUOUS
 62
    7
 10
-24701.266831172175
 20
35382.292073059514
 11
-29501.266831172175
 21
35382.292073059514
  0
LINE
  8
_0-3_
  6
CONTINUOUS
 62
    7
 10
-29501.266831172175
 20
35382.292073059514
 11
-29501.266831172175
 21
43582.292073059514
  0
LINE
  8
_0-3_
  6
CONTINUOUS
 62
    7
 10
-26801.266831172175
 20
43582.292073059514
 11
-26801.266831172175
 21
48082.292073059514
  0
LINE
  8
_0-3_
  6
CONTINUOUS
 62
    7
 10
-26801.266831172175
 20
48082.292073059514
 11
-32001.266831172175
 21
48082.292073059514
  0
LINE
  8
_0-3_
  6
CONTINUOUS
 62
    7
 10
-32001.266831172175
 20
48082.292073059514
 11
-32001.266831172175
 21
55582.292073059514
  0
LINE
  8
_0-3_
  6
CONTINUOUS
 62
    7
 10
-32001.266831172175
 20
55582.292073059514
 11
-54501.266831172186
 21
55582.292073059514
  0
LINE
  8
_0-3_
  6
CONTINUOUS
 62
    7
 10
-54501.266831172186
 20
55582.292073059514
 11
-54501.266831172186
 21
48082.292073059514
  0
LINE
  8
_0-3_
  6
CONTINUOUS
 62
    7
 10
-54501.266831172186
 20
48082.292073059514
 11
-69501.266831172193
 21
48082.292073059514
  0
LINE
  8
_0-3_
  6
CONTINUOUS
 62
    7
 10
-69501.266831172193
 20
48082.292073059514
 11
-69501.266831172193
 21
55582.292073059514
  0
LINE
  8
_0-3_
  6
CONTINUOUS
 62
    7
 10
-69501.266831172193
 20
55582.292073059514
 11
-126501.26683117219
 21
55582.292073059514
  0
LINE
  8
_0-3_
  6
CONTINUOUS
 62
    7
 10
-126501.26683117219
 20
55582.292073059514
 11
-126501.26683117219
 21
48082.292073059514
  0
LINE
  8
_0-3_
  6
CONTINUOUS
 62
    7
 10
-126501.26683117219
 20
48082.292073059514
 11
-131901.26683117219
 21
48082.292073059514
  0
LINE
  8
_0-3_
  6
CONTINUOUS
 62
    7
 10
-131901.26683117219
 20
48082.292073059514
 11
-131901.26683117219
 21
41782.292073059514
  0
LINE
  8
_0-3_
  6
CONTINUOUS
 62
    7
 10
-149479.25433117221
 20
13633.489573059545
 11
-149688.83183117219
 21
6436.5408230595903
  0
LINE
  8
_0-3_
  6
CONTINUOUS
 62
    7
 10
-123362.87614983161
 20
12872.972657948776
 11
-149479.25433117221
 21
13633.489573059545
  0
LINE
  8
_0-3_
  6
CONTINUOUS
 62
    7
 10
-123572.4534973081
 20
5676.0239035072117
 11
-123362.87614983161
 21
12872.972657948776
  0
LINE
  8
_0-3_
  6
CONTINUOUS
 62
    7
 10
-149688.83183117219
 20
6436.5408230595903
 11
-123572.4534973081
 21
5676.0239035072117
  0
LINE
  8
_0-3_
  6
CONTINUOUS
 62
    7
 10
-119491.96558117223
 20
12760.250823059617
 11
-119701.54308117221
 21
5563.3020730595717
  0
LINE
  8
_0-3_
  6
CONTINUOUS
 62
    7
 10
-105098.06808117218
 20
12341.095823059571
 11
-119491.96558117223
 21
12760.250823059617
  0
LINE
  8
_0-3_
  6
CONTINUOUS
 62
    7
 10
-105307.64558117221
 20
5144.1470730596165
 11
-105098.06808117218
 21
12341.095823059571
  0
LINE
  8
_0-3_
  6
CONTINUOUS
 62
    7
 10
-119701.54308117221
 20
5563.3020730595717
 11
-105307.64558117221
 21
5144.1470730596165
  0
LINE
  8
_0-3_
  6
CONTINUOUS
 62
    7
 10
-103098.9155811722
 20
12282.879573059584
 11
-103308.49308117217
 21
5085.9308230595388
  0
LINE
  8
_0-3_
  6
CONTINUOUS
 62
    7
 10
-88465.119331172216
 20
11856.738323059584
 11
-103098.9155811722
 21
12282.879573059584
  0
LINE
  8
_0-3_
  6
CONTINUOUS
 62
    7
 10
-88674.696831172201
 20
4659.7895730595382
 11
-88465.119331172216
 21
11856.738323059584
  0
LINE
  8
_0-3_
  6
CONTINUOUS
 62
    7
 10
-131901.26683117222
 20
48081.777651568634
 11
-131900.75240968129
 21
48082.292073059536
  0
LINE
  8
_0-3_
  6
CONTINUOUS
 62
    7
 10
156624.20936214283
 20
12438.223030579229
 11
178202.41319665347
 21
12438.223030579229
  0
LINE
  8
_0-3_
  6
CONTINUOUS
 62
    7
 10
156624.20936214283
 20
91078.788116351192
 11
178202.41319665347
 21
91078.788116351192
  0
LINE
  8
_0-3_
  6
CONTINUOUS
 62
    7
 10
83498.73316882785
 20
87782.292073059506
 11
83498.73316882785
 21
87082.292073059506
  0
LINE
  8
_0-3_
  6
CONTINUOUS
 62
    7
 10
83498.73316882785
 20
69082.292073059506
 11
83498.73316882785
 21
68082.292073059506
  0
LINE
  8
_0-3_
  6
CONTINUOUS
 62
    7
 10
83498.73316882785
 20
60082.292073059514
 11
83498.73316882785
 21
59082.292073059514
  0
LINE
  8
_0-3_
  6
CONTINUOUS
 62
    7
 10
83498.73316882785
 20
41082.292073059514
 11
83498.73316882785
 21
40082.292073059514
  0
LINE
  8
_0-3_
  6
CONTINUOUS
 62
    7
 10
83498.73316882785
 20
32082.29207305951
 11
83498.73316882785
 21
31082.29207305951
  0
LINE
  8
_0-3_
  6
CONTINUOUS
 62
    7
 10
-16501.266831172175
 20
87782.292073059506
 11
-16501.266831172164
 21
87082.292073059506
  0
LINE
  8
_0-3_
  6
CONTINUOUS
 62
    7
 10
-16501.266831172175
 20
69082.292073059506
 11
-16501.266831172164
 21
68082.292073059506
  0
LINE
  8
_0-3_
  6
CONTINUOUS
 62
    7
 10
-16501.266831172175
 20
60082.292073059514
 11
-16501.266831172164
 21
59082.292073059514
  0
LINE
  8
_0-3_
  6
CONTINUOUS
 62
    7
 10
-16501.266831172175
 20
41082.292073059514
 11
-16501.266831172164
 21
40082.292073059514
  0
LINE
  8
_0-3_
  6
CONTINUOUS
 62
    7
 10
-16501.266831172164
 20
32082.29207305951
 11
-16501.266831172164
 21
31082.29207305951
  0
LINE
  8
_0-3_
  6
CONTINUOUS
 62
    7
 10
83498.73316882785
 20
13082.29207305951
 11
83498.73316882785
 21
12082.29207305951
  0
LINE
  8
_0-3_
  6
CONTINUOUS
 62
    7
 10
-27084.387131750132
 20
86243.875514702289
 11
-27084.387131750132
 21
68898.192891516897
  0
LINE
  8
_0-3_
  6
CONTINUOUS
 62
    7
 10
-136520.58332794628
 20
86243.875514702289
 11
-136534.49622738632
 21
68898.192891516897
  0
LINE
  8
_0-1_
  6
CONTINUOUS
 62
    7
 10
-157026.52262557583
 20
254669.75087272495
 11
-157026.52262557583
 21
248077.19691036778
  0
LINE
  8
_0-1_
  6
CONTINUOUS
 62
    7
 10
-157026.52262557583
 20
248077.19691036778
 11
-169044.32431869735
 21
248077.19691036778
  0
LINE
  8
_0-1_
  6
CONTINUOUS
 62
    7
 10
-147359.03183117217
 20
97182.292073059492
 11
-149122.47331248014
 21
59339.43649872081
  0
LINE
  8
_0-1_
  6
CONTINUOUS
 62
    7
 10
-149122.47331248014
 20
59339.43649872081
 11
-151477.09433117223
 21
59284.685823059633
  0
LINE
  8
_0-1_
  6
CONTINUOUS
 62
    7
 10
-153490.09808117218
 20
26067.908323059487
 11
-152516.55433117219
 21
25997.397073059506
  0
LINE
  8
_0-1_
  6
CONTINUOUS
 62
    7
 10
-152516.55433117219
 20
25997.397073059506
 11
-152725.61558117216
 21
23110.912073059513
  0
LINE
  8
_0-1_
  6
CONTINUOUS
 62
    7
 10
-152725.61558117216
 20
23110.912073059513
 11
-153665.17411632582
 21
23178.961862051368
  0
LINE
  8
_0-1_
  6
CONTINUOUS
 62
    7
 10
-153665.17411632582
 20
23178.961862051368
 11
-154161.82098524193
 21
14983.742073059489
  0
LINE
  8
_0-1_
  6
CONTINUOUS
 62
    7
 10
-154161.82098524193
 20
14983.742073059489
 11
-153170.96558117217
 21
14983.742073059489
  0
LINE
  8
_0-1_
  6
CONTINUOUS
 62
    7
 10
-153170.96558117217
 20
14983.742073059489
 11
-153170.96558117217
 21
14151.590823059519
  0
LINE
  8
_0-1_
  6
CONTINUOUS
 62
    7
 10
-153170.96558117217
 20
14151.590823059519
 11
-154178.30683117214
 21
14151.590823059519
  0
LINE
  8
_0-1_
  6
CONTINUOUS
 62
    7
 10
-154178.30683117214
 20
14151.590823059519
 11
-154701.26683113022
 21
6082.2920730595342
  0
LINE
  8
_0-1_
  6
CONTINUOUS
 62
    7
 10
153648.78715290949
 20
6757.7345730594743
 11
153648.78715290949
 21
2020.4883658758262
  0
LINE
  8
_0-1_
  6
CONTINUOUS
 62
    7
 10
153648.78715290949
 20
2020.4883658758262
 11
189036.90746160026
 21
2020.4883658758262
  0
LINE
  8
_0-1_
  6
CONTINUOUS
 62
    7
 10
189036.90746160026
 20
2020.4883658758262
 11
190052.03164885391
 21
6757.7345730594743
  0
LINE
  8
_0-1_
  6
CONTINUOUS
 62
    7
 10
190052.03164885391
 20
6757.7345730594743
 11
202462.98209766895
 21
6757.7345730594743
  0
LINE
  8
_0-1_
  6
CONTINUOUS
 62
    7
 10
202462.98209766895
 20
6757.7345730594743
 11
203964.1479305776
 21
13082.292073059466
  0
LINE
  8
_0-1_
  6
CONTINUOUS
 62
    7
 10
203964.1479305776
 20
13082.292073059466
 11
197506.0977151858
 21
13082.292073059466
  0
LINE
  8
_0-1_
  6
CONTINUOUS
 62
    7
 10
197506.0977151858
 20
13082.292073059466
 11
200657.33584589112
 21
25928.089224441715
  0
LINE
  8
_0-1_
  6
CONTINUOUS
 62
    7
 10
200657.33584589112
 20
25928.089224441715
 11
204460.37463842515
 21
25687.39056668635
  0
LINE
  8
_0-1_
  6
CONTINUOUS
 62
    7
 10
204460.37463842515
 20
25687.39056668635
 11
213561.18576241124
 21
65379.163451970271
  0
LINE
  8
_0-1_
  6
CONTINUOUS
 62
    7
 10
213561.18576241124
 20
65379.163451970271
 11
214499.30858975776
 21
92421.573648957564
  0
LINE
  8
_0-1_
  6
CONTINUOUS
 62
    7
 10
214499.30858975776
 20
92421.573648957564
 11
170065.93663147266
 21
97182.292073059492
  0
LINE
  8
_0-1_
  6
CONTINUOUS
 62
    7
 10
170065.93663147266
 20
97182.292073059492
 11
-147359.03183117217
 21
97182.292073059492
  0
LINE
  8
_0-1_
  6
CONTINUOUS
 62
    7
 10
-151477.09433117223
 20
59284.685823059633
 11
-153490.09808117218
 21
26067.908323059487
  0
LINE
  8
_0-0_
  6
CONTINUOUS
 62
    7
 10
-161114.84210102577
 20
101987.7689437982
 11
-161114.84210102577
 21
-20528.4772721453
  0
LINE
  8
_0-3_
  6
CONTINUOUS
 62
    7
 10
128679.26939435719
 20
84477.944043653638
 11
120606.09771518579
 21
84477.944043653638
  0
LINE
  8
_0-3_
  6
CONTINUOUS
 62
    7
 10
136406.0977151858
 20
75491.714899768383
 11
128679.26939435719
 21
84477.944043653638
  0
LINE
  8
_0-3_
  6
CONTINUOUS
 62
    7
 10
136406.0977151858
 20
13082.29207305951
 11
136406.0977151858
 21
75491.714899768383
  0
SOLID
  8
_0-5_
  6
CONTINUOUS
 62
    5
 10
-131900.75240968129
 20
48082.292073059536
 11
-131901.26683117219
 21
41782.292073059514
 12
-126501.26683117219
 22
41782.292073059514
 13
-126501.26683117219
 23
41782.292073059514
  0
SOLID
  8
_0-5_
  6
CONTINUOUS
 62
    5
 10
-124051.06595635638
 20
21848.292073059496
 11
-69501.266831172193
 21
21848.292073059496
 12
-69501.266831172193
 22
26982.29207305951
 13
-69501.266831172193
 23
26982.29207305951
  0
SOLID
  8
_0-5_
  6
CONTINUOUS
 62
    5
 10
-59901.266831172186
 20
21848.292073059496
 11
-31101.266831172175
 21
21848.292073059496
 12
-31101.266831172175
 22
26982.29207305951
 13
-31101.266831172175
 23
26982.29207305951
  0
SOLID
  8
_0-5_
  6
CONTINUOUS
 62
    5
 10
-31101.266831172175
 20
26982.29207305951
 11
-24701.266831172175
 21
26982.29207305951
 12
-24701.266831172175
 22
35382.292073059514
 13
-24701.266831172175
 23
35382.292073059514
  0
SOLID
  8
_0-5_
  6
CONTINUOUS
 62
    5
 10
-31101.266831172175
 20
26982.29207305951
 11
-24701.266831172175
 21
35382.292073059514
 12
-29501.266831172175
 22
35382.292073059514
 13
-29501.266831172175
 23
35382.292073059514
  0
SOLID
  8
_0-5_
  6
CONTINUOUS
 62
    5
 10
-31101.266831172175
 20
26982.29207305951
 11
-29501.266831172175
 21
35382.292073059514
 12
-29501.266831172175
 22
43582.292073059514
 13
-29501.266831172175
 23
43582.292073059514
  0
SOLID
  8
_0-5_
  6
CONTINUOUS
 62
    5
 10
-26801.266831172175
 20
43582.292073059514
 11
-26801.266831172175
 21
48082.292073059514
 12
-32001.266831172175
 22
48082.292073059514
 13
-32001.266831172175
 23
48082.292073059514
  0
SOLID
  8
_0-5_
  6
CONTINUOUS
 62
    5
 10
-32001.266831172175
 20
48082.292073059514
 11
-32001.266831172175
 21
55582.292073059514
 12
-54501.266831172186
 22
55582.292073059514
 13
-54501.266831172186
 23
55582.292073059514
  0
SOLID
  8
_0-5_
  6
CONTINUOUS
 62
    5
 10
-32001.266831172175
 20
48082.292073059514
 11
-54501.266831172186
 21
55582.292073059514
 12
-54501.266831172186
 22
48082.292073059514
 13
-54501.266831172186
 23
48082.292073059514
  0
SOLID
  8
_0-5_
  6
CONTINUOUS
 62
    5
 10
-69501.266831172193
 20
55582.292073059514
 11
-126501.26683117219
 21
55582.292073059514
 12
-126501.26683117219
 22
48082.292073059514
 13
-126501.26683117219
 23
48082.292073059514
  0
SOLID
  8
_0-5_
  6
CONTINUOUS
 62
    5
 10
-126501.26683117219
 20
48082.292073059514
 11
-131900.75240968129
 21
48082.292073059536
 12
-126501.26683117219
 22
41782.292073059514
 13
-126501.26683117219
 23
41782.292073059514
  0
SOLID
  8
_0-5_
  6
CONTINUOUS
 62
    5
 10
-126501.26683117219
 20
48082.292073059514
 11
-126501.26683117219
 21
26982.29207305951
 12
-124051.06595635638
 22
26982.29207305951
 13
-124051.06595635638
 23
26982.29207305951
  0
SOLID
  8
_0-5_
  6
CONTINUOUS
 62
    5
 10
-124051.06595635638
 20
26982.29207305951
 11
-124051.06595635638
 21
21848.292073059496
 12
-69501.266831172193
 22
26982.29207305951
 13
-69501.266831172193
 23
26982.29207305951
  0
SOLID
  8
_0-5_
  6
CONTINUOUS
 62
    5
 10
-59901.266831172186
 20
26982.29207305951
 11
-59901.266831172186
 21
21848.292073059496
 12
-31101.266831172175
 22
26982.29207305951
 13
-31101.266831172175
 23
26982.29207305951
  0
SOLID
  8
_0-5_
  6
CONTINUOUS
 62
    5
 10
-59901.266831172186
 20
26982.29207305951
 11
-31101.266831172175
 21
26982.29207305951
 12
-29501.266831172175
 22
43582.292073059514
 13
-29501.266831172175
 23
43582.292073059514
  0
SOLID
  8
_0-5_
  6
CONTINUOUS
 62
    5
 10
-29501.266831172175
 20
43582.292073059514
 11
-26801.266831172175
 21
43582.292073059514
 12
-32001.266831172175
 22
48082.292073059514
 13
-32001.266831172175
 23
48082.292073059514
  0
SOLID
  8
_0-5_
  6
CONTINUOUS
 62
    5
 10
-29501.266831172175
 20
43582.292073059514
 11
-32001.266831172175
 21
48082.292073059514
 12
-69501.266831172193
 22
48082.292073059514
 13
-69501.266831172193
 23
48082.292073059514
  0
SOLID
  8
_0-5_
  6
CONTINUOUS
 62
    5
 10
-69501.266831172193
 20
48082.292073059514
 11
-69501.266831172193
 21
55582.292073059514
 12
-126501.26683117219
 22
48082.292073059514
 13
-126501.26683117219
 23
48082.292073059514
  0
SOLID
  8
_0-5_
  6
CONTINUOUS
 62
    5
 10
-69501.266831172193
 20
48082.292073059514
 11
-126501.26683117219
 21
48082.292073059514
 12
-124051.06595635638
 22
26982.29207305951
 13
-124051.06595635638
 23
26982.29207305951
  0
SOLID
  8
_0-5_
  6
CONTINUOUS
 62
    5
 10
-69501.266831172193
 20
48082.292073059514
 11
-124051.06595635638
 21
26982.29207305951
 12
-59901.266831172186
 22
26982.29207305951
 13
-59901.266831172186
 23
26982.29207305951
  0
SOLID
  8
_0-5_
  6
CONTINUOUS
 62
    5
 10
-69501.266831172193
 20
48082.292073059514
 11
-59901.266831172186
 21
26982.29207305951
 12
-29501.266831172175
 22
43582.292073059514
 13
-29501.266831172175
 23
43582.292073059514
  0
SOLID
  8
_0-5_
  6
CONTINUOUS
 62
    5
 10
-136520.58332794628
 20
86243.875514702289
 11
-136534.49622738632
 21
68898.192891516897
 12
-27084.387131750132
 22
86243.875514702289
 13
-27084.387131750132
 23
68898.192891516897
  0
SOLID
  8
_0-5_
  6
CONTINUOUS
 62
    5
 10
-148167.92283146179
 20
69082.292073059506
 11
-148377.39129537891
 21
64587.169943169763
 12
-145770.52436218727
 22
68970.575558970376
 13
-145979.99282610433
 23
64475.453429080633
  0
SOLID
  8
_0-5_
  6
CONTINUOUS
 62
    5
 10
-32584.387131750132
 20
96592.292073059565
 11
-32584.387131750132
 21
94192.292073059565
 12
-28084.387131750132
 22
96592.292073059565
 13
-28084.387131750132
 23
94192.292073059565
  0
SOLID
  8
_0-5_
  6
CONTINUOUS
 62
    9
 10
120606.09771518579
 20
84477.944043653638
 11
120606.09771518579
 21
13082.29207305951
 12
128679.26939435719
 22
84477.944043653638
 13
136406.0977151858
 23
75491.714899768383
  0
SOLID
  8
_0-5_
  6
CONTINUOUS
 62
    9
 10
120606.09771518579
 20
13082.29207305951
 11
136406.0977151858
 21
13082.29207305951
 12
136406.0977151858
 22
75491.714899768383
 13
136406.0977151858
 23
75491.714899768383
  0
SOLID
  8
_0-5_
  6
CONTINUOUS
 62
    9
 10
93498.73316882785
 20
87082.292073059506
 11
93498.73316882785
 21
13082.29207305951
 12
110998.73316882786
 22
87082.292073059506
 13
110998.73316882786
 23
13082.29207305951
  0
SOLID
  8
_0-5_
  6
CONTINUOUS
 62
    9
 10
156624.20936214283
 20
91078.788116351192
 11
156624.20936214283
 21
12438.223030579229
 12
178202.41319665347
 22
91078.788116351192
 13
178202.41319665347
 23
12438.223030579229
  0
SOLID
  8
_0-5_
  6
CONTINUOUS
 62
    9
 10
-16501.266831172175
 20
87782.292073059506
 11
-16501.266831172164
 21
87082.292073059506
 12
83498.73316882785
 22
87782.292073059506
 13
83498.73316882785
 23
87082.292073059492
  0
SOLID
  8
_0-5_
  6
CONTINUOUS
 62
    9
 10
-16501.266831172175
 20
69082.292073059492
 11
-16501.266831172164
 21
68082.292073059506
 12
83498.73316882785
 22
69082.292073059492
 13
83498.73316882785
 23
68082.292073059506
  0
SOLID
  8
_0-5_
  6
CONTINUOUS
 62
    9
 10
-16501.266831172175
 20
60082.292073059492
 11
-16501.266831172164
 21
59082.292073059514
 12
83498.73316882785
 22
60082.292073059492
 13
83498.73316882785
 23
59082.292073059514
  0
SOLID
  8
_0-5_
  6
CONTINUOUS
 62
    9
 10
-16501.266831172175
 20
41082.292073059492
 11
-16501.266831172164
 21
40082.292073059514
 12
83498.73316882785
 22
41082.292073059514
 13
83498.73316882785
 23
40082.292073059492
  0
SOLID
  8
_0-5_
  6
CONTINUOUS
 62
    9
 10
-16501.266831172175
 20
32082.29207305951
 11
-16501.266831172164
 21
31082.29207305951
 12
83498.73316882785
 22
32082.292073059488
 13
83498.73316882785
 23
31082.29207305951
  0
LINE
  8
_0-4_
  6
CONTINUOUS
 62
    2
 10
13798.733168827822
 20
24574.303664167906
 11
13798.733168827822
 21
31082.292073059488
  0
LINE
  8
_0-4_
  6
CONTINUOUS
 62
    2
 10
3798.7331688278231
 20
24574.303664167906
 11
3798.7331688278231
 21
31082.292073059488
  0
LINE
  8
_0-4_
  6
CONTINUOUS
 62
    2
 10
-6201.2668311721772
 20
24574.303664167906
 11
-6201.2668311721772
 21
31082.292073059488
  0
LINE
  8
_0-3_
  6
CONTINUOUS
 62
    7
 10
-16501.266831172164
 20
24574.303664167906
 11
-16501.266831172164
 21
12082.29207305951
  0
LINE
  8
_0-3_
  6
CONTINUOUS
 62
    7
 10
23798.733168827835
 20
24600.387408148857
 11
23798.733168827828
 21
13082.29207305951
  0
LINE
  8
_0-4_
  6
CONTINUOUS
 62
    2
 10
23798.733168827824
 20
24574.303664167906
 11
23798.733168827824
 21
30989.201148244956
  0
LINE
  8
_0-3_
  6
CONTINUOUS
 62
    7
 10
23798.733168827835
 20
24574.303664167906
 11
-16501.266831172175
 21
24574.303664167906
  0
LINE
  8
_0-1_
  6
CONTINUOUS
 62
    7
 10
-154701.26683113019
 20
6082.2920730607165
 11
-82606.529079045008
 21
4271.6444895474751
  0
LINE
  8
_0-3_
  6
CONTINUOUS
 62
    7
 10
153648.78715290949
 20
6757.7345730594743
 11
-82606.529079044892
 21
4271.6444895474751
  0
LINE
  8
_0-1_
  6
CONTINUOUS
 62
    7
 10
153648.78715290949
 20
6757.7345730594743
 11
-82606.529079045008
 21
4271.6444895474751
  0
SOLID
  8
_0-5_
  6
CONTINUOUS
 62
   91
 10
-161114.84210102577
 20
-20528.4772721453
 11
-82606.529079045008
 21
-20528.4772721453
 12
-82606.529079045008
 22
4271.6444895474751
 13
-82606.529079045008
 23
4271.6444895474751
  0
SOLID
  8
_0-5_
  6
CONTINUOUS
 62
   91
 10
-161114.84210102577
 20
-20528.4772721453
 11
-82606.529079045008
 21
4271.6444895474751
 12
-154701.26683113019
 22
6082.2920730607165
 13
-154701.26683113019
 23
6082.2920730607165
  0
SOLID
  8
_0-5_
  6
CONTINUOUS
 62
   91
 10
-161114.84210102577
 20
-20528.4772721453
 11
-154701.26683113019
 21
6082.2920730607165
 12
-154178.30683117214
 22
14151.590823059519
 13
-154178.30683117214
 23
14151.590823059519
  0
SOLID
  8
_0-5_
  6
CONTINUOUS
 62
   91
 10
-153170.96558117217
 20
14151.590823059519
 11
-153170.96558117217
 21
14983.742073059489
 12
-154161.82098524193
 22
14983.742073059489
 13
-154161.82098524193
 23
14983.742073059489
  0
SOLID
  8
_0-5_
  6
CONTINUOUS
 62
   91
 10
-152725.61558117216
 20
23110.912073059513
 11
-152516.55433117219
 21
25997.397073059506
 12
-153490.09808117218
 22
26067.908323059487
 13
-153490.09808117218
 23
26067.908323059487
  0
SOLID
  8
_0-5_
  6
CONTINUOUS
 62
   91
 10
-149122.47331248014
 20
59339.43649872081
 11
-147359.03183117217
 21
97182.292073059492
 12
-161114.84210102577
 22
101987.7689437982
 13
-161114.84210102577
 23
101987.7689437982
  0
SOLID
  8
_0-5_
  6
CONTINUOUS
 62
   91
 10
-161114.84210102577
 20
101987.7689437982
 11
-161114.84210102577
 21
-20528.4772721453
 12
-154178.30683117214
 22
14151.590823059519
 13
-154178.30683117214
 23
14151.590823059519
  0
SOLID
  8
_0-5_
  6
CONTINUOUS
 62
   91
 10
-154178.30683117214
 20
14151.590823059519
 11
-153170.96558117217
 21
14151.590823059519
 12
-154161.82098524193
 22
14983.742073059489
 13
-154161.82098524193
 23
14983.742073059489
  0
SOLID
  8
_0-5_
  6
CONTINUOUS
 62
   91
 10
-151477.09433117223
 20
59284.685823059633
 11
-149122.47331248014
 21
59339.43649872081
 12
-161114.84210102577
 22
101987.7689437982
 13
-161114.84210102577
 23
101987.7689437982
  0
SOLID
  8
_0-5_
  6
CONTINUOUS
 62
   91
 10
-161114.84210102577
 20
101987.7689437982
 11
-154178.30683117214
 21
14151.590823059519
 12
-154161.82098524193
 22
14983.742073059489
 13
-154161.82098524193
 23
14983.742073059489
  0
SOLID
  8
_0-5_
  6
CONTINUOUS
 62
   91
 10
-161114.84210102577
 20
101987.7689437982
 11
-154161.82098524193
 21
14983.742073059489
 12
-153665.17411632582
 22
23178.961862051368
 13
-153665.17411632582
 23
23178.961862051368
  0
SOLID
  8
_0-5_
  6
CONTINUOUS
 62
   91
 10
-153665.17411632582
 20
23178.961862051368
 11
-152725.61558117216
 21
23110.912073059513
 12
-153490.09808117218
 22
26067.908323059487
 13
-153490.09808117218
 23
26067.908323059487
  0
SOLID
  8
_0-5_
  6
CONTINUOUS
 62
   91
 10
-153665.17411632582
 20
23178.961862051368
 11
-153490.09808117218
 21
26067.908323059487
 12
-151477.09433117223
 22
59284.685823059633
 13
-151477.09433117223
 23
59284.685823059633
  0
SOLID
  8
_0-5_
  6
CONTINUOUS
 62
   91
 10
-153665.17411632582
 20
23178.961862051368
 11
-151477.09433117223
 21
59284.685823059633
 12
-161114.84210102577
 22
101987.7689437982
 13
-161114.84210102577
 23
101987.7689437982
  0
SOLID
  8
_0-5_
  6
CONTINUOUS
 62
   91
 10
200657.33584589112
 20
25928.089224441715
 11
197506.0977151858
 21
13082.292073059466
 12
203964.1479305776
 22
13082.292073059466
 13
203964.1479305776
 23
13082.292073059466
  0
SOLID
  8
_0-5_
  6
CONTINUOUS
 62
   91
 10
153648.78715290949
 20
2020.4883658758262
 11
153648.78715290949
 21
-20528.4772721453
 12
223876.27797970088
 22
-20528.4772721453
 13
223876.27797970088
 23
-20528.4772721453
  0
SOLID
  8
_0-5_
  6
CONTINUOUS
 62
   91
 10
223876.27797970088
 20
101987.7689437982
 11
-161114.84210102577
 21
101987.7689437982
 12
-147359.03183117217
 22
97182.292073059492
 13
-147359.03183117217
 23
97182.292073059492
  0
SOLID
  8
_0-5_
  6
CONTINUOUS
 62
   91
 10
223876.27797970088
 20
101987.7689437982
 11
-147359.03183117217
 21
97182.292073059492
 12
170065.93663147266
 22
97182.292073059492
 13
170065.93663147266
 23
97182.292073059492
  0
SOLID
  8
_0-5_
  6
CONTINUOUS
 62
   91
 10
223876.27797970088
 20
101987.7689437982
 11
170065.93663147266
 21
97182.292073059492
 12
214499.30858975776
 22
92421.573648957564
 13
214499.30858975776
 23
92421.573648957564
  0
SOLID
  8
_0-5_
  6
CONTINUOUS
 62
   91
 10
223876.27797970088
 20
101987.7689437982
 11
214499.30858975776
 21
92421.573648957564
 12
213561.18576241124
 22
65379.163451970271
 13
213561.18576241124
 23
65379.163451970271
  0
SOLID
  8
_0-5_
  6
CONTINUOUS
 62
   91
 10
223876.27797970088
 20
101987.7689437982
 11
213561.18576241124
 21
65379.163451970271
 12
204460.37463842515
 22
25687.39056668635
 13
204460.37463842515
 23
25687.39056668635
  0
SOLID
  8
_0-5_
  6
CONTINUOUS
 62
   91
 10
204460.37463842515
 20
25687.39056668635
 11
200657.33584589112
 21
25928.089224441715
 12
203964.1479305776
 22
13082.292073059466
 13
203964.1479305776
 23
13082.292073059466
  0
SOLID
  8
_0-5_
  6
CONTINUOUS
 62
   91
 10
189036.90746160026
 20
2020.4883658758262
 11
153648.78715290949
 21
2020.4883658758262
 12
223876.27797970088
 22
-20528.4772721453
 13
223876.27797970088
 23
-20528.4772721453
  0
SOLID
  8
_0-5_
  6
CONTINUOUS
 62
   91
 10
223876.27797970088
 20
-20528.4772721453
 11
223876.27797970088
 21
101987.7689437982
 12
204460.37463842515
 22
25687.39056668635
 13
204460.37463842515
 23
25687.39056668635
  0
SOLID
  8
_0-5_
  6
CONTINUOUS
 62
   91
 10
223876.27797970088
 20
-20528.4772721453
 11
204460.37463842515
 21
25687.39056668635
 12
203964.1479305776
 22
13082.292073059466
 13
203964.1479305776
 23
13082.292073059466
  0
SOLID
  8
_0-5_
  6
CONTINUOUS
 62
   91
 10
223876.27797970088
 20
-20528.4772721453
 11
203964.1479305776
 21
13082.292073059466
 12
202462.98209766895
 22
6757.7345730594743
 13
202462.98209766895
 23
6757.7345730594743
  0
SOLID
  8
_0-5_
  6
CONTINUOUS
 62
   91
 10
223876.27797970088
 20
-20528.4772721453
 11
202462.98209766895
 21
6757.7345730594743
 12
190052.03164885391
 22
6757.7345730594743
 13
190052.03164885391
 23
6757.7345730594743
  0
SOLID
  8
_0-5_
  6
CONTINUOUS
 62
   91
 10
223876.27797970088
 20
-20528.4772721453
 11
190052.03164885391
 21
6757.7345730594743
 12
189036.90746160026
 22
2020.4883658758262
 13
189036.90746160026
 23
2020.4883658758262
  0
SOLID
  8
_0-5_
  6
CONTINUOUS
 62
   91
 10
-82606.529079045008
 20
4271.6444895474751
 11
-82606.529079045008
 21
-20528.4772721453
 12
153648.78715290949
 22
6757.7345730594743
 13
153648.78715290949
 23
-20528.4772721453
  0
SOLID
  8
_0-5_
  6
CONTINUOUS
 62
    9
 10
-16501.266831172164
 20
12082.29207305951
 11
83498.73316882785
 21
12082.29207305951
 12
83498.73316882785
 22
13082.29207305951
 13
83498.73316882785
 23
13082.29207305951
  0
SOLID
  8
_0-5_
  6
CONTINUOUS
 62
    9
 10
-16501.266831172164
 20
12082.29207305951
 11
83498.73316882785
 21
13082.29207305951
 12
23798.733168827828
 22
13082.29207305951
 13
23798.733168827828
 23
13082.29207305951
  0
SOLID
  8
_0-5_
  6
CONTINUOUS
 62
    9
 10
-16501.266831172164
 20
12082.29207305951
 11
23798.733168827828
 21
13082.29207305951
 12
23798.733168827835
 22
24574.303664167906
 13
23798.733168827835
 23
24574.303664167906
  0
SOLID
  8
_0-5_
  6
CONTINUOUS
 62
    9
 10
-16501.266831172164
 20
12082.29207305951
 11
23798.733168827835
 21
24574.303664167906
 12
-16501.266831172164
 22
24574.303664167906
 13
-16501.266831172164
 23
24574.303664167906
  0
SOLID
  8
_0-5_
  6
CONTINUOUS
 62
   17
 10
-149479.25433117221
 20
13633.489573059545
 11
-149688.83183117219
 21
6436.5408230595903
 12
-123362.87614983161
 22
12872.972657948776
 13
-123572.4534973081
 23
5676.0239035072117
  0
SOLID
  8
_0-5_
  6
CONTINUOUS
 62
   17
 10
-119491.96558117223
 20
12760.250823059617
 11
-119701.54308117221
 21
5563.3020730595717
 12
-105098.06808117218
 22
12341.095823059571
 13
-105307.64558117221
 23
5144.1470730596165
  0
SOLID
  8
_0-5_
  6
CONTINUOUS
 62
   17
 10
-103098.9155811722
 20
12282.879573059584
 11
-103308.49308117217
 21
5085.9308230595388
 12
-88465.119331172216
 22
11856.738323059584
 13
-88674.696831172201
 23
4659.7895730595382
  0
LINE
  8
_0-4_
  6
CONTINUOUS
 62
    2
 10
23798.733168827824
 20
24574.303664167906
 11
23798.733168827824
 21
13082.292073059488
  0
ENDSEC
  0
EOF
